<svg xmlns="http://www.w3.org/2000/svg" width="1480" height="1481" viewBox="0 0 1480 1481" version="1.1">
	<path d="M 700.500 1.108 C 523.956 10.654, 356.101 83.412, 229 205.480 C 186.851 245.960, 153.534 285.693, 122.490 332.500 C 51.299 439.837, 9.869 562.758, 1.040 692.830 C -0.542 716.145, -1.619 713.292, 9.750 715.906 C 15.112 717.140, 26.581 718.820, 35.234 719.641 L 50.969 721.134 57.234 717.817 C 69.438 711.356, 88.380 690.632, 113.735 656 C 141.962 617.446, 149.708 610.866, 159.699 616.958 C 161.978 618.348, 164.062 621.311, 166.940 627.259 C 171.697 637.086, 174.176 646.232, 176.356 662 C 177.231 668.325, 178.899 680.475, 180.062 689 C 187.625 744.407, 201.773 778.427, 228.862 806.340 C 246.521 824.538, 270.642 839.103, 299.467 848.975 C 332.206 860.187, 367.992 862.052, 405.500 854.500 C 428.286 849.913, 456.789 839.408, 477.061 828.127 C 482.128 825.307, 487.064 823, 488.029 823 C 491.375 823, 510.493 827.156, 515.917 829.062 C 518.915 830.116, 523.113 832.133, 525.245 833.544 C 528.375 835.615, 529.062 836.624, 528.811 838.780 C 528.560 840.932, 526.848 842.463, 520 846.656 C 505.527 855.519, 501.775 860.659, 503.412 869.382 C 504.403 874.666, 509.506 880.894, 514.742 883.210 C 518.358 884.810, 520.632 885.130, 525.342 884.703 C 536.591 883.683, 554.067 873.026, 563.521 861.422 C 567.016 857.133, 567.917 855.038, 569.330 847.922 C 571.643 836.269, 571.516 822.880, 569.015 814.783 C 565.208 802.458, 556.079 791.436, 545.750 786.693 C 543.138 785.493, 541 784.162, 541 783.734 C 541 783.307, 542.153 781.215, 543.562 779.085 C 546.509 774.632, 548.375 768.254, 550.462 755.500 C 555.256 726.209, 570.953 702.761, 593.847 690.690 C 613.929 680.102, 634.798 677.892, 695.008 679.979 C 759.642 682.219, 778.797 679.130, 823.500 659.256 C 873.865 636.866, 931.425 618.025, 1004.500 600.012 C 1043.582 590.378, 1041.350 590.972, 1036.423 591.517 C 1002.342 595.287, 985.260 593.960, 976.663 586.874 C 974.715 585.268, 965.366 574.677, 955.889 563.338 C 914.155 513.408, 883.237 488.101, 853.251 479.328 C 849.815 478.323, 847.002 477.232, 847.001 476.904 C 846.997 474.945, 920.710 474.289, 944.500 476.036 C 995.447 479.778, 1034.312 489.133, 1059.077 503.616 C 1062.610 505.682, 1070.915 511.487, 1077.534 516.516 C 1104.011 536.633, 1123.479 544.573, 1149.128 545.715 C 1165.223 546.432, 1175.052 545.207, 1207.038 538.498 C 1242.996 530.956, 1248.639 530.068, 1265 529.372 C 1277.898 528.823, 1304.157 529.966, 1317.229 531.645 L 1321.958 532.252 1318.425 535.059 C 1311.576 540.502, 1308.850 545.538, 1308.839 552.762 C 1308.822 564.655, 1319.525 574.132, 1336.250 577.034 C 1352.152 579.793, 1370.904 572.024, 1376.135 560.509 C 1378.168 556.034, 1378.529 549.522, 1376.972 545.426 C 1376.407 543.939, 1376.106 542.561, 1376.304 542.363 C 1376.823 541.844, 1395.953 547.325, 1406.500 551.015 C 1428.851 558.834, 1451.437 572.349, 1458.928 582.385 C 1460.813 584.911, 1462.487 586.846, 1462.648 586.686 C 1463.343 585.990, 1431.875 477.595, 1428.482 469 C 1407.093 414.811, 1357.444 331.881, 1311.140 273 C 1273.008 224.512, 1230.634 183.651, 1177.818 144.440 C 1041.691 43.377, 870.343 -8.077, 700.500 1.108 M 1081.058 619.055 C 1064.823 621.082, 1056.831 624.232, 1033.568 637.771 C 1017.354 647.208, 1009.156 650.991, 996.500 654.877 C 985.657 658.205, 965.359 662.156, 949.567 664.011 C 932.033 666.071, 921.678 670.285, 908.858 680.579 C 891.965 694.143, 878.083 721.192, 877.652 741.386 C 877.392 753.577, 881.245 758.343, 888.356 754.626 C 890.085 753.722, 895.514 749.852, 900.421 746.026 C 915.815 734.020, 927.632 729, 940.500 729 C 949.509 729, 955.366 730.732, 971.001 738.019 C 986.738 745.354, 990.687 746.340, 1002.309 745.831 L 1011.614 745.424 1029.557 736.775 C 1067.646 718.415, 1088.771 710.797, 1097.209 712.379 C 1100.344 712.968, 1100.612 713.287, 1100.217 715.974 C 1099.907 718.089, 1100.946 721.076, 1103.892 726.538 C 1106.151 730.727, 1108 735.434, 1108 737 C 1108 741.209, 1103.749 745.573, 1092.605 752.805 C 1074.922 764.280, 1070 770.312, 1070 780.510 C 1070 786.563, 1071.895 791.338, 1074.945 792.970 C 1076.003 793.537, 1079.352 794, 1082.386 794 C 1087.044 794, 1089.431 793.217, 1097.702 788.976 C 1110.275 782.529, 1120.448 775.218, 1151.919 750.011 C 1180.971 726.742, 1192.611 715.721, 1199.850 704.633 C 1207.371 693.111, 1209.252 687.457, 1209.776 674.789 C 1210.739 651.498, 1203.091 640.783, 1178.465 630.922 C 1168.209 626.816, 1151.197 622.540, 1136.857 620.464 C 1123.504 618.531, 1091.685 617.728, 1081.058 619.055 M 804.081 719.040 C 802.750 719.602, 799.150 721.577, 796.081 723.430 C 784.173 730.618, 780.435 731.214, 742 732.048 C 705.529 732.839, 692.711 734.041, 672 738.612 C 633.632 747.080, 609.512 761.779, 608.210 777.486 C 607.885 781.394, 608.188 783.045, 609.463 784.320 C 612.503 787.361, 619.110 785.850, 623.373 781.140 C 626.340 777.862, 631.323 776.624, 635.750 778.067 C 641.504 779.942, 646.313 783.666, 661.274 797.834 C 678.056 813.725, 686.048 819.885, 696.500 824.985 C 719.504 836.209, 740.555 830.702, 763.639 807.422 C 768.666 802.353, 773.841 797.874, 775.139 797.470 C 776.438 797.065, 781.550 794.808, 786.500 792.453 C 807.173 782.620, 821 770.850, 827.624 757.446 C 831.155 750.302, 831.500 748.887, 831.500 741.552 C 831.500 732.168, 829.128 726.791, 822.713 721.634 C 819.550 719.092, 817.901 718.543, 812.713 718.305 C 809.296 718.148, 805.411 718.479, 804.081 719.040 M 1466 756.716 C 1449.887 771.520, 1426.897 789.986, 1409.624 802 C 1402.111 807.225, 1395.546 811.642, 1395.034 811.816 C 1394.515 811.992, 1394.344 810.653, 1394.648 808.780 C 1395.386 804.234, 1393.498 797.745, 1390.348 794.002 C 1382.977 785.242, 1369.043 784.024, 1354.504 790.868 C 1341.898 796.803, 1332.339 809.175, 1331.272 820.936 C 1330.562 828.767, 1332.210 833.135, 1337.698 837.965 L 1342.256 841.977 1331.378 847.059 C 1298.562 862.388, 1254.856 877.189, 1219.675 884.886 L 1210.850 886.816 1209.003 882.506 C 1207.986 880.135, 1205.883 873.314, 1204.327 867.348 C 1201.692 857.237, 1201.503 855.209, 1201.545 837.500 C 1201.587 819.653, 1201.758 817.954, 1204.355 809.500 C 1209.936 791.331, 1217.251 779.624, 1231.408 766.203 C 1238.178 759.785, 1238.631 759.148, 1235.164 760.916 C 1229.616 763.747, 1217.305 773.714, 1212.131 779.565 C 1187.642 807.259, 1179.952 843.391, 1188.932 888.565 C 1197.480 931.570, 1193.777 969.303, 1178.013 999.827 C 1171.709 1012.034, 1165.320 1020.518, 1155.030 1030.349 C 1140.422 1044.306, 1126.292 1052.204, 1097.500 1062.509 C 1035.348 1084.752, 996.033 1112.195, 984.060 1141.693 L 982.109 1146.500 982.055 1134.483 C 981.937 1108.492, 985.650 1070.138, 990.622 1046.004 C 1001.046 995.400, 1018.654 963.924, 1044.739 949.262 C 1047.908 947.481, 1050.173 946.018, 1049.774 946.012 C 1049.375 946.005, 1039.700 947.991, 1028.274 950.425 C 894.325 978.959, 768.421 998.231, 681.833 1003.455 L 660.500 1004.742 714.250 1004.871 C 745.787 1004.947, 768 1005.376, 768 1005.910 C 768 1009.508, 748.323 1028.871, 737.463 1035.961 C 722.576 1045.679, 709.190 1049.602, 693.725 1048.779 C 681.276 1048.116, 662.568 1041.818, 638.031 1030.030 C 627.839 1025.134, 617.250 1020.390, 614.500 1019.488 C 599.282 1014.498, 578.093 1011.004, 542 1007.533 C 527.425 1006.131, 507.175 1004.062, 497 1002.936 C 388.938 990.979, 309.253 966.655, 250 927.540 C 231.604 915.396, 223.480 908.722, 212.716 896.908 L 203.065 886.317 185.783 885.664 C 96.991 882.307, 33.543 851.167, 6.147 797.500 L 2.063 789.500 2.032 796 C 1.965 810.072, 9.387 865.315, 14.997 892.500 C 43.963 1032.870, 114.854 1163.469, 217.468 1265.500 C 390.032 1437.083, 633.842 1512.475, 874 1468.516 C 971.057 1450.751, 1064.265 1413.193, 1147 1358.512 C 1211.342 1315.987, 1270.609 1261.756, 1318.332 1201.739 C 1406.999 1090.230, 1460.773 958.183, 1475.420 816 C 1477.412 796.663, 1479.213 763.459, 1478.818 753.366 L 1478.500 745.232 1466 756.716 M 994 840.678 C 984.035 842.294, 956.234 847.331, 950.500 848.560 C 927.696 853.448, 906.660 863.229, 887.207 877.988 C 868.582 892.120, 864.256 894.152, 844.500 898.047 C 829.799 900.946, 817.967 904.969, 803.500 911.987 C 780.606 923.092, 776.982 930.144, 792 934.367 C 799.242 936.404, 809.973 937.723, 829.483 938.975 C 857.439 940.768, 868.151 940.382, 885.172 936.966 C 899.416 934.107, 901.428 933.947, 919.947 934.216 L 939.604 934.500 948.052 930.313 C 961.359 923.718, 974.236 910.719, 983.966 894.058 C 986.762 889.271, 989.901 885.659, 994.328 882.137 C 1008.052 871.216, 1018.960 857.134, 1018.990 850.297 C 1019.020 843.547, 1013.196 839.907, 1002.730 840.136 C 999.303 840.211, 995.375 840.455, 994 840.678" stroke="none" fill="black" fill-rule="evenodd"/>
</svg>